<svg xmlns="http://www.w3.org/2000/svg" data-name="Layer 1" viewBox="0 0 512 512" id="offer"><path fill="#fed947" d="M377,38.91c34.09,18.9,14.82,93.3,33.47,124.5,19.24,32.18,93.46,50.77,94.05,88.29.58,36.36-72.35,57.39-91.36,91.49s1.56,107-29.71,125.68c-32.27,19.29-87.26-33.78-124.83-33.1-36.41.66-89.61,56.23-123.7,37.32s-14.82-93.3-33.47-124.5C82.25,316.41,8,297.82,7.44,260.3c-.58-36.36,72.35-57.39,91.36-91.49s-1.56-107,29.71-125.68c32.27-19.29,87.26,33.78,124.83,33.1C289.75,75.57,343,20,377,38.91Z"></path><path fill="#e4222e" d="M377,38.91c34.09,18.9,14.82,93.3,33.47,124.5,19.24,32.18,93.46,50.77,94.05,88.29.58,36.36-72.35,57.39-91.36,91.49s1.56,107-29.71,125.68c-32.27,19.29-87.26-33.78-124.83-33.1-36.41.66-89.61,56.23-123.7,37.32s-14.82-93.3-33.47-124.5C82.25,316.41,8,297.82,7.44,260.3c-.58-36.36,72.35-57.39,91.36-91.49s-1.56-107,29.71-125.68c32.27-19.29,87.26,33.78,124.83,33.1C289.75,75.57,343,20,377,38.91Z"></path><path fill="#c0232c" d="M413.2,313.19c-19,34.09,1.56,107-29.71,125.68-32.27,19.29-87.26-33.78-124.83-33.1-36.41.66-89.61,56.23-123.7,37.32s-14.82-93.3-33.47-124.5C84.93,290.9,27.7,273.27,11.65,245a29.54,29.54,0,0,0-4.21,15.3c.59,37.52,74.81,56.11,94.05,88.29,18.65,31.2-.62,105.6,33.47,124.5s87.29-36.66,123.7-37.32c37.57-.68,92.56,52.39,124.83,33.1,31.27-18.7,10.7-91.59,29.71-125.68s91.94-55.13,91.36-91.49a30.34,30.34,0,0,0-4.21-14.7C484.63,264.61,429.38,284.16,413.2,313.19Z"></path><path fill="#e4222e" d="M471.72,131.77c19.56,33.79-35.29,87.79-35.32,124.19,0,37.56,54.16,91.73,35.36,124.27-18.21,31.54-91.7,12.07-125.58,31.58S292.47,504.53,256,504.5c-37.65,0-57.58-73.93-90.2-92.68C134.15,393.65,59.84,414,40.28,380.23S75.57,292.44,75.6,256c0-37.56-54.16-91.73-35.36-124.27,18.21-31.54,91.7-12.07,125.58-31.58S219.53,7.47,256,7.5c37.65,0,57.58,73.93,90.2,92.68C377.85,118.35,452.16,98,471.72,131.77Z"></path><path fill="#fed947" d="M471.72,131.77c19.56,33.79-35.29,87.79-35.32,124.19,0,37.56,54.16,91.73,35.36,124.27-18.21,31.54-91.7,12.07-125.58,31.58S292.47,504.53,256,504.5c-37.65,0-57.58-73.93-90.2-92.68C134.15,393.65,59.84,414,40.28,380.23S75.57,292.44,75.6,256c0-37.56-54.16-91.73-35.36-124.27,18.21-31.54,91.7-12.07,125.58-31.58S219.53,7.47,256,7.5c37.65,0,57.58,73.93,90.2,92.68C377.85,118.35,452.16,98,471.72,131.77Z"></path><path fill="#f8be32" d="M75.6 226c0-26.82-27.6-62.11-36.55-91.94C26 162.52 63.14 205.83 73.17 240.75A52.81 52.81 0 0 0 75.6 226zM471.76 350.23c-18.21 31.54-91.7 12.07-125.58 31.58S292.47 474.53 256 474.5c-37.65 0-57.58-73.93-90.2-92.68C134.15 363.65 59.84 384 40.28 350.23a29.19 29.19 0 0 1-1.54-3.06c-3.55 12.08-4.05 23.4 1.54 33.06 19.56 33.79 93.87 13.42 125.49 31.59 32.62 18.75 52.55 92.65 90.2 92.68 36.5 0 56.34-73.18 90.21-92.69s107.37 0 125.58-31.58c5.38-9.31 4.78-20.38 1.19-32.33C472.59 348.69 472.2 349.46 471.76 350.23zM436.4 226a55.79 55.79 0 0 0 2.43 15.29c10-33.95 47.29-77 34.43-106.42C464.39 165 436.43 200 436.4 226z"></path><path fill="#1b3764" d="M214.6,219.57v-.9c0-7.73-3.66-12.23-9.18-14.1,4.4-1.5,7.39-5.25,7.39-11.47,0-9.38-6.87-13.35-16.49-13.35s-16.49,4-16.49,13.35c0,6.22,3,10,7.39,11.47-5.52,1.87-9.25,6.37-9.25,14.1v.9C178,230.74,186,235,196.32,235S214.6,230.74,214.6,219.57Zm-18.28-30.45c3.36,0,5.3,1.65,5.3,5.48s-1.94,5.39-5.3,5.39-5.3-1.5-5.3-5.39S193,189.12,196.32,189.12Zm-6.72,29v-1.65c0-4.87,2.54-7.12,6.72-7.12s6.64,2.25,6.64,7.12v1.65c0,5-2.39,7.5-6.64,7.5C192.22,225.64,189.6,223.32,189.6,218.14ZM123.35,166a7.5,7.5,0,1,0,2.75,10.25A7.49,7.49,0,0,0,123.35,166ZM256,101.29a7.5,7.5,0,1,0-7.5-7.5A7.5,7.5,0,0,0,256,101.29ZM115.85,323.54a7.5,7.5,0,1,0,10.25,2.75A7.49,7.49,0,0,0,115.85,323.54ZM388.65,166a7.5,7.5,0,1,0,10.24,2.75A7.5,7.5,0,0,0,388.65,166Zm-71.18,37.85c-6.34,0-11.19,2.7-11.19,10.13v10.65c0,7.42,4.85,10.12,11.19,10.12s11.19-2.7,11.19-10.12V214C328.66,206.59,323.74,203.89,317.47,203.89Zm3.73,20.78c0,2.47-1.42,3.6-3.73,3.6s-3.65-1.13-3.65-3.6V214c0-2.48,1.34-3.6,3.65-3.6s3.73,1.12,3.73,3.6Zm-5.67,45.08H289.65c-2.54,0-5.08,1.2-5.08,3.6V321c0,2.4,2.91,3.6,5.82,3.6s5.82-1.2,5.82-3.6V301.62h11.27c2.46,0,3.5-2.4,3.5-4.43,0-2.4-1.27-4.57-3.5-4.57H296.21V280h19.32c2.24,0,3.51-2.4,3.51-5.18C319,272.37,318,269.75,315.53,269.75ZM287.63,238a3.73,3.73,0,0,0,3.36-1.88l26.26-54.07a3.3,3.3,0,0,0,.3-1.42c0-2.4-2.32-4-4.41-4a3.28,3.28,0,0,0-3.13,1.88l-26.18,54.07a3.28,3.28,0,0,0-.38,1.42A4.14,4.14,0,0,0,287.63,238Zm-78.48,31.73c-10.29,0-18.28,4.8-18.28,17.69v19.88c0,12.9,8,17.7,18.28,17.7s18.35-4.8,18.35-17.7V287.44C227.5,274.55,219.45,269.75,209.15,269.75Zm6.71,37.57c0,5.17-2.53,7.5-6.71,7.5s-6.64-2.33-6.64-7.5V287.44c0-5.17,2.46-7.49,6.64-7.49s6.71,2.32,6.71,7.49Zm296.2-55.74c-.37-23.53-23-39.48-45-53.3,12.63-24.69,23.11-49.57,11.13-70.27-12.58-21.73-41.56-24.37-70.75-25.71-1.78-29-4.87-57.8-26.78-69.95-21.43-11.89-47.77.38-70.12,12.3C295.45,21.59,279.23,0,256,0h0c-24.23,0-40.89,24.79-56.87,49.32C172.79,36.38,145.84,24,124.66,36.69c-19.73,11.81-22.13,39.27-23.26,67-28.11,1.54-56,4.2-67.66,24.31-12.47,21.59.77,48.67,14.36,75.06C23.89,219.36-.45,236.35-.06,260.42c.37,23.53,23,39.48,45,53.3C32.29,338.41,21.81,363.29,33.79,384c12.58,21.73,41.56,24.37,70.75,25.71,1.78,29,4.87,57.8,26.78,69.95a39.56,39.56,0,0,0,19.55,4.85c16.74,0,34.66-8.66,50.57-17.15C216.55,490.41,232.77,512,256,512h0c24.23,0,40.89-24.79,56.87-49.32,18.55,9.11,37.39,17.93,54.32,17.93a38.49,38.49,0,0,0,20.15-5.3c19.73-11.81,22.13-39.27,23.26-67,28.11-1.54,56-4.2,67.66-24.31,12.47-21.59-.77-48.67-14.36-75.06C488.11,292.64,512.45,275.65,512.06,251.58ZM373.4,45.47c14.7,8.15,17.44,31.75,19,56.16-16.56-.83-32.59-2.3-42.42-8-11.06-6.35-21.31-21.15-31.21-36.37C340.71,45.78,359.85,38,373.4,45.47Zm-241,4.1c14-8.38,36.28,1.53,58.47,12.38-9,13.44-18.45,25.81-28.76,31.74-11.08,6.39-28.11,8.16-45.62,9.21C117.44,79.66,119.53,57.25,132.36,49.57ZM14.94,260.18c-.25-15.69,19.66-29.91,40-43.64C62.08,230.79,68.11,244.79,68.1,256c0,12.26-7.93,28.37-16.23,44.32C30.66,286.85,15.17,274.82,14.94,260.18ZM138.6,466.53c-14.7-8.15-17.44-31.75-19-56.16,16.56.83,32.59,2.3,42.42,8,11.06,6.35,21.31,21.15,31.21,36.37C171.29,466.22,152.15,474.05,138.6,466.53Zm241-4.1c-14,8.38-36.28-1.53-58.47-12.38,9-13.45,18.45-25.81,28.76-31.74,11.08-6.39,28.11-8.16,45.62-9.21C394.56,432.34,392.47,454.75,379.64,462.43Zm85.63-85.95c-8.31,14.37-35.09,15.77-61,17.12-22.43,1.17-45.63,2.38-61.83,11.71s-28.86,28.77-41.09,47.57C287.23,474.57,272.63,497,256,497h0c-17.58,0-32.47-23.08-46.88-45.39-11.88-18.4-24.16-37.42-39.59-46.29C154.88,396.91,134.07,396,112,395h-.07l-.56,0c-27.16-1.16-55.25-2.36-64.6-18.5s3.66-41,16.23-65C73.33,291.7,83.08,273.05,83.1,256c0-16.71-9.15-35.49-18.58-53.85L64.4,202l-1.69-3.3c-12.16-23.59-24.74-48-16-63.16,8.31-14.37,35.09-15.77,61-17.12,22.43-1.17,45.63-2.38,61.83-11.71s28.86-28.77,41.09-47.57C224.77,37.43,239.37,15,256,15h0c17.58,0,32.47,23.08,46.88,45.39,11.88,18.4,24.16,37.42,39.59,46.29,14.77,8.49,35.84,9.38,58.14,10.34,27.16,1.16,55.25,2.36,64.6,18.51h0c9.34,16.14-3.66,41-16.23,65C438.67,220.3,428.92,239,428.9,256c0,16.71,9.15,35.49,18.58,53.85l.12.21,1.69,3.3C461.45,336.91,474,361.3,465.27,376.48Zm-8.24-81c-7.11-14.25-13.14-28.25-13.13-39.49,0-12.26,7.93-28.37,16.23-44.32,21.21,13.5,36.7,25.53,36.93,40.17C497.31,267.51,477.4,281.73,457,295.46Zm-60.88,28.08a7.5,7.5,0,1,0,2.74,10.25A7.5,7.5,0,0,0,396.15,323.54ZM261.74,217.32V197.44c0-12.89-8.05-17.69-18.35-17.69s-18.27,4.8-18.27,17.69v19.88c0,12.9,8,17.7,18.27,17.7S261.74,230.22,261.74,217.32Zm-25,0V197.44c0-5.17,2.46-7.49,6.64-7.49s6.72,2.32,6.72,7.49v19.88c0,5.17-2.54,7.5-6.72,7.5S236.75,222.49,236.75,217.32Zm57.67-16.8V189.87c0-7.42-4.92-10.12-11.19-10.12S272,182.45,272,189.87v10.65c0,7.42,4.85,10.12,11.19,10.12S294.42,207.94,294.42,200.52Zm-7.46,0c0,2.47-1.42,3.6-3.73,3.6s-3.66-1.13-3.66-3.6V189.87c0-2.47,1.35-3.6,3.66-3.6s3.73,1.13,3.73,3.6Zm-15.44,69.23H245.63c-2.54,0-5.07,1.2-5.07,3.6V321c0,2.4,2.91,3.6,5.82,3.6s5.82-1.2,5.82-3.6V301.62h11.26c2.46,0,3.51-2.4,3.51-4.43,0-2.4-1.27-4.57-3.51-4.57H252.2V280h19.32c2.23,0,3.5-2.4,3.5-5.18C275,272.37,274,269.75,271.52,269.75ZM256,401.29a7.5,7.5,0,1,0,7.5,7.5A7.5,7.5,0,0,0,256,401.29Z"></path></svg>